# xmcd CD database file
# 
# Track frame offsets:
# 	150
# 	18257
# 	37789
# 	55321
# 	76568
# 	102180
# 	124089
# 	144026
# 	164271
# 	182028
# 	201515
# 	223317
# 	243554
# 	262993
# 	281223
# 	302157
# 	325402
# 
# Disc length: 4549 seconds
# 
# Submitted via: Nero 6, 3, 0, 2
# 
# Revision: 0
# Processed by: cddbd v1.5PL3 Copyright (c) Steve Scherf et al.
#
DISCID=ee11c311
DTITLE=Dave Steel - Old Salt Blues
DYEAR=1900
DGENRE=
TTITLE0=Someday
TTITLE1=Morning Train
TTITLE2=Speechless
TTITLE3=You Make it so Easy
TTITLE4=We'll Never Know
TTITLE5=Broken Hearts Rendezvous
TTITLE6=Do You Remember (time slips away)
TTITLE7=Edge of Breaking Down
TTITLE8=Slow Life
TTITLE9=Remembering me Slowly
TTITLE10=Exile
TTITLE11=Pilgrim
TTITLE12=Golden Vine
TTITLE13=Old Salt Blues
TTITLE14=Hot day in Chinatown
TTITLE15=Stranger
TTITLE16=Real Good Time
EXTD=
EXTT0=
EXTT1=
EXTT2=
EXTT3=
EXTT4=
EXTT5=
EXTT6=
EXTT7=
EXTT8=
EXTT9=
EXTT10=
EXTT11=
EXTT12=
EXTT13=
EXTT14=
EXTT15=
EXTT16=
PLAYORDER=
